<svg width="621" height="192" viewBox="0 0 621 192" fill="none" xmlns="http://www.w3.org/2000/svg">
<path d="M138.83 126.4H156.71L154.17 139.81H156.59C160.46 130.87 168.19 125.43 178.82 125.43L175.2 144.28L164.69 144.4C156.72 144.52 152.37 149.72 151.16 155.88L144.52 189.46H126.64L138.84 126.4H138.83Z" fill="black"/>
<path d="M176.04 163.97C176.04 141.98 192.47 124.83 214.7 124.83C234.15 124.83 244.54 139.33 240.31 158.05L238.98 163.97H193.32C193.8 171.82 199.24 175.57 206.49 175.57C212.29 175.57 217.48 172.07 219.9 169.29L232.1 178.11C225.09 185.84 215.79 191.04 203.47 191.04C187.4 191.04 176.05 179.93 176.05 163.98L176.04 163.97ZM224.48 149.96C224.84 144.16 220.86 139.33 212.76 139.33C205.63 139.33 199.59 143.44 196.21 149.96H224.48ZM208.9 118.43L219.77 99.95H235.11L234.63 102.37L220.86 120.85H208.42L208.9 118.43Z" fill="black"/>
<path d="M244.77 166.14C244.77 144.15 259.99 124.83 278.6 124.83C288.99 124.83 294.91 131.47 295.51 139.21H297.93L300.47 126.4H318.35L309.29 172.43C308.93 174.48 309.77 175.33 311.83 175.33H313.76L310.98 189.46H300.35C294.31 189.46 289.84 184.75 290.93 178.71L291.29 176.66H288.87C284.88 185.6 277.27 191.04 266.88 191.04C252.87 191.04 244.77 180.41 244.77 166.15V166.14ZM276.3 174.72C286.33 174.72 295.51 164.93 295.51 154.3C295.51 146.21 289.95 141.13 282.83 141.13C272.56 141.13 263.5 150.67 263.5 161.79C263.5 169.64 268.82 174.72 276.31 174.72H276.3Z" fill="black"/>
<path d="M355.68 98.86L341.3 172.43C340.94 174.48 341.78 175.33 343.84 175.33H348.19L345.41 189.46H335.14C326.44 189.46 321.13 184.63 322.82 175.81L337.8 98.86H355.68Z" fill="black"/>
<path d="M364.25 126.4H382.13L369.93 189.46H352.05L364.25 126.4ZM369.44 98.86H387.8L384.18 117.34H365.82L369.44 98.86Z" fill="black"/>
<path d="M382.49 171.7L399.16 167.71C399.16 173.51 403.75 175.8 409.19 175.8C416.08 175.8 420.3 173.38 420.3 169.52C420.3 167.83 419.33 166.26 415.59 165.53L404.84 163.36C396.75 161.67 389.98 156.35 389.98 147.29C389.98 133.4 402.42 124.82 418.73 124.82C432.86 124.82 443.01 132.19 443.25 143.18L426.94 147.29C426.94 142.94 423.44 139.32 417.28 139.32C411.6 139.32 407.86 142.1 407.86 145.36C407.86 147.17 409.31 148.5 412.57 149.11L422.96 151.04C434.07 153.09 438.42 159.62 438.42 166.99C438.42 181.73 426.7 191.03 407.62 191.03C393.49 191.03 382.73 184.27 382.49 171.7Z" fill="black"/>
<path d="M457.88 126.4H475.76L473.34 139.21H475.76C478.78 131.6 486.39 124.83 495.45 124.83C506.08 124.83 510.91 131.11 511.4 139.21H513.82C517.08 131.6 524.81 124.83 533.63 124.83C547.16 124.83 551.63 134.98 549.46 145.97L541 189.46H523.12L530.25 153.1C531.46 146.82 528.2 142.23 521.92 142.23C515.64 142.23 510.81 146.94 509.6 153.1L502.47 189.46H484.59L491.72 153.1C492.93 146.82 489.55 142.23 483.26 142.23C476.97 142.23 471.9 146.94 470.7 153.1L463.57 189.46H445.69L457.89 126.4H457.88Z" fill="black"/>
<path d="M555.49 163.97C555.49 141.98 571.92 124.83 594.15 124.83C613.6 124.83 623.99 139.33 619.76 158.05L618.43 163.97H572.77C573.25 171.82 578.69 175.57 585.94 175.57C591.74 175.57 596.93 172.07 599.35 169.29L611.55 178.11C604.54 185.84 595.24 191.04 582.92 191.04C566.85 191.04 555.5 179.93 555.5 163.98L555.49 163.97ZM603.93 149.96C604.29 144.16 600.31 139.33 592.21 139.33C585.08 139.33 579.04 143.44 575.66 149.96H603.93Z" fill="black"/>
<path d="M73.28 75.83H67.74L73.56 45.06H73.44L79.81 12.91H42.67L38.79 32.04C36.57 42.85 28.81 46.45 19.67 46.45H6.37L0 79.7H26.6L14.13 143.44C7.2 178.92 26.6 189.72 49.61 189.72H80.93L88.14 152.86H64.86C56.83 152.86 53.22 148.7 54.89 139.84L59.58 116.14L60.82 112.67C63.59 98.54 73.57 86.62 91.86 86.34L115.97 86.06L124.29 42.82C99.9 42.82 82.16 55.29 73.29 75.8L73.28 75.83Z" fill="#CCFF00"/>
<path d="M149.65 75.38L157.02 36.96H145.79L147.36 29.23H152.19C157.14 29.23 160.04 26.45 160.89 22.22L162.34 14.97H170.92L168.14 28.98H187.35L185.78 36.95H166.45L159.08 75.37C158.11 80.32 160.89 82.26 164.88 82.26H176.11L174.54 90.6H161.98C154.13 90.6 147.73 85.41 149.66 75.38H149.65Z" fill="black"/>
<path d="M190.49 66.68C190.49 44.81 205.95 27.42 227.09 27.42C245.09 27.42 254.87 41.55 250.53 58.59L249.44 62.82H200.03C199.91 63.91 199.91 64.99 199.91 66.08C199.91 76.59 205.59 83.6 217.18 83.6C224.67 83.6 232.76 80.22 238.08 73.09L244.6 77.68C238.2 86.38 227.45 92.18 215.49 92.18C199.54 92.18 190.48 80.82 190.48 66.69L190.49 66.68ZM242.07 54.36C244.37 43.25 237.48 35.76 226 35.76C214.52 35.76 205.22 42.28 201.48 54.36H242.07Z" fill="black"/>
<path d="M259.35 65.84C259.35 45.55 276.14 27.42 297.64 27.42C309.24 27.42 319.75 33.7 322.53 45.54L313.95 49.77C312.98 43.01 306.7 36.24 296.43 36.24C281.45 36.24 269.25 49.53 269.25 65.84C269.25 76.11 276.5 83.36 287.25 83.36C296.07 83.36 305.73 78.65 311.41 68.5L318.42 72.37C310.93 86.5 297.88 92.18 285.56 92.18C269.86 92.18 259.35 81.55 259.35 65.85V65.84Z" fill="black"/>
<path d="M346.81 0H356.35L348.62 39.38H351.04C354.3 32.98 362.03 27.42 371.7 27.42C386.32 27.42 392.72 38.29 390.3 50.61L382.57 90.6H373.03L380.4 52.55C382.21 43.25 376.53 36.24 367.11 36.24C356.72 36.24 347.78 43.85 345.73 54.36L338.72 90.6H329.18L346.81 0Z" fill="black"/>
<path d="M412.77 28.99H422.31L420.26 39.38H422.68C426.18 32.98 432.83 27.42 442.49 27.42C456.99 27.42 463.87 38.29 461.46 50.61L453.73 90.6H444.19L451.56 52.55C453.37 43.25 447.94 36.24 438.51 36.24C428.12 36.24 419.42 43.85 417.37 54.36L410.36 90.6H400.82L412.78 28.99H412.77Z" fill="black"/>
<path d="M472.33 67.05C472.33 45.55 489.48 27.43 510.75 27.43C526.94 27.43 537.81 37.82 537.81 52.68C537.81 74.18 520.66 92.18 499.39 92.18C483.56 92.18 472.33 82.15 472.33 67.05ZM500.48 83.6C515.34 83.6 527.9 69.95 527.9 54.24C527.9 43.73 520.89 36 509.66 36C494.92 36 482.24 49.77 482.24 65.48C482.24 76.23 489.25 83.6 500.48 83.6Z" fill="black"/>
</svg>
