<svg width="495" height="192" viewBox="0 0 495 192" fill="none" xmlns="http://www.w3.org/2000/svg">
<path d="M12.83 126.4H30.71L28.17 139.81H30.59C34.46 130.87 42.19 125.43 52.82 125.43L49.2 144.28L38.69 144.4C30.72 144.52 26.37 149.72 25.16 155.88L18.52 189.46H0.639999L12.84 126.4H12.83Z" fill="black"/>
<path d="M50.04 163.97C50.04 141.98 66.47 124.83 88.7 124.83C108.15 124.83 118.54 139.33 114.31 158.05L112.98 163.97H67.32C67.8 171.82 73.24 175.57 80.49 175.57C86.29 175.57 91.48 172.07 93.9 169.29L106.1 178.11C99.09 185.84 89.79 191.04 77.47 191.04C61.4 191.04 50.05 179.93 50.05 163.98L50.04 163.97ZM98.48 149.96C98.84 144.16 94.86 139.33 86.76 139.33C79.63 139.33 73.59 143.44 70.21 149.96H98.48ZM82.9 118.43L93.77 99.95H109.11L108.63 102.37L94.86 120.85H82.42L82.9 118.43Z" fill="black"/>
<path d="M118.77 166.14C118.77 144.15 133.99 124.83 152.6 124.83C162.99 124.83 168.91 131.47 169.51 139.21H171.93L174.47 126.4H192.35L183.29 172.43C182.93 174.48 183.77 175.33 185.83 175.33H187.76L184.98 189.46H174.35C168.31 189.46 163.84 184.75 164.93 178.71L165.29 176.66H162.87C158.88 185.6 151.27 191.04 140.88 191.04C126.87 191.04 118.77 180.41 118.77 166.15V166.14ZM150.3 174.72C160.33 174.72 169.51 164.93 169.51 154.3C169.51 146.21 163.95 141.13 156.83 141.13C146.56 141.13 137.5 150.67 137.5 161.79C137.5 169.64 142.82 174.72 150.31 174.72H150.3Z" fill="black"/>
<path d="M229.68 98.86L215.3 172.43C214.94 174.48 215.78 175.33 217.84 175.33H222.19L219.41 189.46H209.14C200.44 189.46 195.13 184.63 196.82 175.81L211.8 98.86H229.68Z" fill="black"/>
<path d="M238.25 126.4H256.13L243.93 189.46H226.05L238.25 126.4ZM243.44 98.86H261.8L258.18 117.34H239.82L243.44 98.86Z" fill="black"/>
<path d="M256.49 171.7L273.16 167.71C273.16 173.51 277.75 175.8 283.19 175.8C290.08 175.8 294.3 173.38 294.3 169.52C294.3 167.83 293.33 166.26 289.59 165.53L278.84 163.36C270.75 161.67 263.98 156.35 263.98 147.29C263.98 133.4 276.42 124.82 292.73 124.82C306.86 124.82 317.01 132.19 317.25 143.18L300.94 147.29C300.94 142.94 297.44 139.32 291.28 139.32C285.6 139.32 281.86 142.1 281.86 145.36C281.86 147.17 283.31 148.5 286.57 149.11L296.96 151.04C308.07 153.09 312.42 159.62 312.42 166.99C312.42 181.73 300.7 191.03 281.62 191.03C267.49 191.03 256.73 184.27 256.49 171.7Z" fill="black"/>
<path d="M331.88 126.4H349.76L347.34 139.21H349.76C352.78 131.6 360.39 124.83 369.45 124.83C380.08 124.83 384.91 131.11 385.4 139.21H387.82C391.08 131.6 398.81 124.83 407.63 124.83C421.16 124.83 425.63 134.98 423.46 145.97L415 189.46H397.12L404.25 153.1C405.46 146.82 402.2 142.23 395.92 142.23C389.64 142.23 384.81 146.94 383.6 153.1L376.47 189.46H358.59L365.72 153.1C366.93 146.82 363.55 142.23 357.26 142.23C350.97 142.23 345.9 146.94 344.7 153.1L337.57 189.46H319.69L331.89 126.4H331.88Z" fill="black"/>
<path d="M429.49 163.97C429.49 141.98 445.92 124.83 468.15 124.83C487.6 124.83 497.99 139.33 493.76 158.05L492.43 163.97H446.77C447.25 171.82 452.69 175.57 459.94 175.57C465.74 175.57 470.93 172.07 473.35 169.29L485.55 178.11C478.54 185.84 469.24 191.04 456.92 191.04C440.85 191.04 429.5 179.93 429.5 163.98L429.49 163.97ZM477.93 149.96C478.29 144.16 474.31 139.33 466.21 139.33C459.08 139.33 453.04 143.44 449.66 149.96H477.93Z" fill="black"/>
<path d="M23.65 75.38L31.02 36.96H19.79L21.36 29.23H26.19C31.14 29.23 34.04 26.45 34.89 22.22L36.34 14.97H44.92L42.14 28.98H61.35L59.78 36.95H40.45L33.08 75.37C32.11 80.32 34.89 82.26 38.88 82.26H50.11L48.54 90.6H35.98C28.13 90.6 21.73 85.41 23.66 75.38H23.65Z" fill="black"/>
<path d="M64.49 66.68C64.49 44.81 79.95 27.42 101.09 27.42C119.09 27.42 128.87 41.55 124.53 58.59L123.44 62.82H74.03C73.91 63.91 73.91 64.99 73.91 66.08C73.91 76.59 79.59 83.6 91.18 83.6C98.67 83.6 106.76 80.22 112.08 73.09L118.6 77.68C112.2 86.38 101.45 92.18 89.49 92.18C73.54 92.18 64.48 80.82 64.48 66.69L64.49 66.68ZM116.07 54.36C118.37 43.25 111.48 35.76 100 35.76C88.52 35.76 79.22 42.28 75.48 54.36H116.07Z" fill="black"/>
<path d="M133.35 65.84C133.35 45.55 150.14 27.42 171.64 27.42C183.24 27.42 193.75 33.7 196.53 45.54L187.95 49.77C186.98 43.01 180.7 36.24 170.43 36.24C155.45 36.24 143.25 49.53 143.25 65.84C143.25 76.11 150.5 83.36 161.25 83.36C170.07 83.36 179.73 78.65 185.41 68.5L192.42 72.37C184.93 86.5 171.88 92.18 159.56 92.18C143.86 92.18 133.35 81.55 133.35 65.85V65.84Z" fill="black"/>
<path d="M220.81 0H230.35L222.62 39.38H225.04C228.3 32.98 236.03 27.42 245.7 27.42C260.32 27.42 266.72 38.29 264.3 50.61L256.57 90.6H247.03L254.4 52.55C256.21 43.25 250.53 36.24 241.11 36.24C230.72 36.24 221.78 43.85 219.73 54.36L212.72 90.6H203.18L220.81 0Z" fill="black"/>
<path d="M286.77 28.99H296.31L294.26 39.38H296.68C300.18 32.98 306.83 27.42 316.49 27.42C330.99 27.42 337.87 38.29 335.46 50.61L327.73 90.6H318.19L325.56 52.55C327.37 43.25 321.94 36.24 312.51 36.24C302.12 36.24 293.42 43.85 291.37 54.36L284.36 90.6H274.82L286.78 28.99H286.77Z" fill="black"/>
<path d="M346.33 67.0501C346.33 45.5501 363.48 27.4301 384.75 27.4301C400.94 27.4301 411.81 37.8201 411.81 52.6801C411.81 74.1801 394.66 92.1801 373.39 92.1801C357.56 92.1801 346.33 82.1501 346.33 67.0501ZM374.48 83.6001C389.34 83.6001 401.9 69.9501 401.9 54.2401C401.9 43.7301 394.89 36.0001 383.66 36.0001C368.92 36.0001 356.24 49.7701 356.24 65.4801C356.24 76.2301 363.25 83.6001 374.48 83.6001Z" fill="black"/>
</svg>
